# xmcd
# 
# Track frame offsets:
#     150
#     10360
#     20533
#     33245
#     45705
#     56752
#     66658
#     78961
#     87214
#     98282
#     108814
#     118885
# 
# Disc length: 1740
# 
# Revision: 4
# Processed by: cddbd v1.5.2PL0 Copyright (c) Steve Scherf et al.
# Submitted via: fre:ac v1.0.31
# 
DISCID=9206ca0c
DTITLE=Johnny Cash - Greatest Hits
DYEAR=0
DGENRE=Country
TTITLE0=Ballad Of A Teenage Queen
TTITLE1=Get Rhythm
TTITLE2=Folsom Prison Blues
TTITLE3=I Walk The Line
TTITLE4=The Ways Of A Woman In Love
TTITLE5=Rock Island Line
TTITLE6=You're The Nearest Thing To Heaven
TTITLE7=Guess Things Happen That Way
TTITLE8=I Just Trought You'd Like To Know
TTITLE9=Straight A's In Love
TTITLE10=Hey Porter
TTITLE11=Big River
EXTD=
EXTT0=
EXTT1=
EXTT2=
EXTT3=
EXTT4=
EXTT5=
EXTT6=
EXTT7=
EXTT8=
EXTT9=
EXTT10=
EXTT11=
PLAYORDER=
